HIERARCHY
ROOT Hips
{
	OFFSET 0.00000 0.00000 0.00000
	CHANNELS 6 Xposition Yposition Zposition Zrotation Yrotation Xrotation 
	JOINT LHipJoint
	{
		OFFSET 0 0 0
		CHANNELS 3 Zrotation Yrotation Xrotation
		JOINT LeftUpLeg
		{
			OFFSET 1.59715 -1.91394 0.36268
			CHANNELS 3 Zrotation Yrotation Xrotation
			JOINT LeftLeg
			{
				OFFSET 2.53886 -6.97546 0.00000
				CHANNELS 3 Zrotation Yrotation Xrotation
				JOINT LeftFoot
				{
					OFFSET 2.77084 -7.61284 0.00000
					CHANNELS 3 Zrotation Yrotation Xrotation
					JOINT LeftToeBase
					{
						OFFSET 0.19855 -0.54550 2.06057
						CHANNELS 3 Zrotation Yrotation Xrotation
						End Site
						{
							OFFSET 0.00000 -0.00000 1.07182
						}
					}
				}
			}
		}
	}
	JOINT RHipJoint
	{
		OFFSET 0 0 0
		CHANNELS 3 Zrotation Yrotation Xrotation
		JOINT RightUpLeg
		{
			OFFSET -1.71086 -1.91394 0.36268
			CHANNELS 3 Zrotation Yrotation Xrotation
			JOINT RightLeg
			{
				OFFSET -2.59448 -7.12828 0.00000
				CHANNELS 3 Zrotation Yrotation Xrotation
				JOINT RightFoot
				{
					OFFSET -2.80237 -7.69945 0.00000
					CHANNELS 3 Zrotation Yrotation Xrotation
					JOINT RightToeBase
					{
						OFFSET -0.18280 -0.50224 2.06614
						CHANNELS 3 Zrotation Yrotation Xrotation
						End Site
						{
							OFFSET -0.00000 -0.00000 1.07055
						}
					}
				}
			}
		}
	}
	JOINT LowerBack
	{
		OFFSET 0 0 0
		CHANNELS 3 Zrotation Yrotation Xrotation
		JOINT Spine
		{
			OFFSET 0.04838 1.91536 -0.09733
			CHANNELS 3 Zrotation Yrotation Xrotation
			JOINT Spine1
			{
				OFFSET 0.04097 1.92183 -0.02751
				CHANNELS 3 Zrotation Yrotation Xrotation
				JOINT Neck
				{
					OFFSET 0 0 0
					CHANNELS 3 Zrotation Yrotation Xrotation
					JOINT Neck1
					{
						OFFSET 0.18766 3.12816 0.13727
						CHANNELS 3 Zrotation Yrotation Xrotation
						JOINT Head
						{
							OFFSET -0.11178 3.16074 0.02732
							CHANNELS 3 Zrotation Yrotation Xrotation
							End Site
							{
								OFFSET 0.47685 1.04189 0.57898
							}
						}
					}
				}
				JOINT LeftShoulder
				{
					OFFSET 0 0 0
					CHANNELS 3 Zrotation Yrotation Xrotation
					JOINT LeftArm
					{
						OFFSET 3.49325 0.99827 -0.10681
						CHANNELS 3 Zrotation Yrotation Xrotation
						JOINT LeftForeArm
						{
							OFFSET 5.12842 -0.00000 0.00000
							CHANNELS 3 Zrotation Yrotation Xrotation
							JOINT LeftHand
							{
								OFFSET 3.47396 -0.00000 0.00000
								CHANNELS 3 Zrotation Yrotation Xrotation
								JOINT LeftFingerBase
								{
									OFFSET 0 0 0
									CHANNELS 3 Zrotation Yrotation Xrotation
									JOINT LeftHandIndex1
									{
										OFFSET 0.72861 -0.00000 0.00000
										CHANNELS 3 Zrotation Yrotation Xrotation
										End Site
										{
											OFFSET 0.58742 -0.00000 0.00000
										}
									}
								}
								JOINT LThumb
								{
									OFFSET 0 0 0
									CHANNELS 3 Zrotation Yrotation Xrotation
									End Site
									{
										OFFSET 0.59639 -0.00000 0.59639
									}
								}
							}
						}
					}
				}
				JOINT RightShoulder
				{
					OFFSET 0 0 0
					CHANNELS 3 Zrotation Yrotation Xrotation
					JOINT RightArm
					{
						OFFSET -3.23261 1.50670 -0.18692
						CHANNELS 3 Zrotation Yrotation Xrotation
						JOINT RightForeArm
						{
							OFFSET -5.48477 -0.00000 -0.00000
							CHANNELS 3 Zrotation Yrotation Xrotation
							JOINT RightHand
							{
								OFFSET -3.47856 -0.00000 0.00000
								CHANNELS 3 Zrotation Yrotation Xrotation
								JOINT RightFingerBase
								{
									OFFSET 0 0 0
									CHANNELS 3 Zrotation Yrotation Xrotation
									JOINT RightHandIndex1
									{
										OFFSET -0.70997 -0.00000 0.00000
										CHANNELS 3 Zrotation Yrotation Xrotation
										End Site
										{
											OFFSET -0.57240 -0.00000 0.00000
										}
									}
								}
								JOINT RThumb
								{
									OFFSET 0 0 0
									CHANNELS 3 Zrotation Yrotation Xrotation
									End Site
									{
										OFFSET -0.58114 -0.00000 0.58114
									}
								}
							}
						}
					}
				}
			}
		}
	}
}
MOTION
Frames: 7
Frame Time: 0.0210526
0.00 0.00 0.00 0 0 0 0 0 0 -21 0 0 0 0 0 0 0 0 0 0 0 0 0 0 21 0 0 0 0 0 0 0 0 0 0 0 0 0 0 0 0 0 0 0 0 0 0 -16 0 0 21 0 0 11 0 0 0 -8 0 0 0 0 0 0 0 0 0 0 0 0 0 0 0 0 0 0 0 0 8 0 0 0 0 0 0 0 0 0 0 0 0 0 0 0 0 0
0.00 0.00 0.00 -0.9675 -64.0037 8.3568 0.0000 0.0000 0.0000 -11.6319 -25.0462 -33.5781 4.7110 13.0507 39.5586 0.8229 -7.5716 -16.2527 1.0463 -6.5050 -18.2569 0.0000 0.0000 0.0000 30.2077 19.6003 -8.9511 -4.8635 -13.2284 40.2294 -1.3636 4.4787 -21.0596 -2.7070 -10.2050 29.6432 2.4776 1.0483 5.6437 2.7465 1.5181 2.0108 1.3352 0.7343 -1.1030 -1.6269 1.5118 -15.2553 -7.1788 4.5029 32.3151 -1.9032 0.5678 13.6660 -0.0000 -0.0000 0.0000 -95.0316 1.9893 9.1621 16.6427 -26.3843 -3.9272 -0.0000 -0.0000 10.0550 13.5635 30.9985 7.0826 -7.1250 0.0000 -0.0000 -20.9653 60.4630 -8.1137 -0.0000 -0.0000 0.0000 85.3239 7.4012 17.5018 -15.3409 24.6189 -3.3667 0.0000 -0.0000 -5.4726 -25.7876 13.5403 -6.4538 7.1250 -0.0000 -0.0000 1.0919 -15.0080 0.7721
0.00 0.00 0.00 1.1543 -69.9522 5.3375 0.0000 0.0000 0.0000 -18.9652 -17.4209 -29.8224 4.0024 12.1636 36.3131 0.3238 -14.1729 -13.3892 0.1136 -2.1730 -5.9839 0.0000 0.0000 0.0000 30.1137 12.6807 -5.9253 -6.4977 -14.8939 46.9478 -0.0052 12.0394 -8.5185 -3.4272 -11.3565 33.4917 1.1473 1.9619 5.4059 1.7591 2.6382 2.4437 1.0100 1.2978 -0.5465 -0.3879 2.8900 -13.7322 -8.2285 6.3755 32.4931 -2.2644 1.3926 13.5768 -0.0000 0.0000 0.0000 -92.8627 0.8880 8.5090 17.4946 -27.5052 -4.3133 -0.0000 -0.0000 8.0988 14.8640 31.3944 7.8717 -7.1250 0.0000 -0.0000 -19.8976 61.1437 -8.0037 -0.0000 0.0000 0.0000 88.4627 4.5626 17.5775 -16.2294 25.8308 -3.7454 0.0000 -0.0000 -6.1370 -24.8486 14.4137 -6.5757 7.1250 -0.0000 -0.0000 1.7950 -14.1715 1.3016
0.00 0.00 0.00 1.7495 -70.2282 4.7681 0.0000 0.0000 0.0000 -19.4229 -20.0716 -27.4832 4.3935 12.6664 38.1322 0.3530 -12.6220 -12.9343 0.0398 1.2877 3.5408 0.0000 0.0000 0.0000 27.8146 9.0573 -11.6745 -8.7436 -16.6399 55.1993 0.3912 11.3189 7.0032 -4.6836 -13.0184 39.4373 0.5002 1.9563 5.7829 1.6825 2.6136 2.1988 1.2752 1.2844 -1.0333 -0.4011 3.3366 -13.5847 -8.4338 7.0917 32.4914 -2.2347 1.6744 13.5980 -0.0000 0.0000 0.0000 -93.4148 1.0476 6.1117 17.9539 -28.0981 -4.5275 -0.0000 -0.0000 9.0316 14.1702 31.1528 7.4417 -7.1250 0.0000 -0.0000 -20.4448 60.7509 -8.0428 -0.0000 0.0000 0.0000 88.7883 3.4467 17.5226 -16.0267 25.5569 -3.6575 0.0000 -0.0000 -6.7827 -24.0122 13.1843 -5.8018 7.1250 -0.0000 -0.0000 2.2855 -15.6038 1.5878
0.00 0.00 0.00 2.8851 -73.3027 3.5574 0.0000 0.0000 0.0000 -20.3380 -20.6727 -24.0829 4.7447 13.0904 39.7077 0.8165 -8.8100 -16.3418 0.0954 1.9923 5.4844 0.0000 0.0000 0.0000 23.3045 9.7171 -21.9456 -13.4128 -18.9262 70.4028 -0.0574 10.0860 15.2565 -2.1830 -9.2374 26.5407 -0.1003 2.4623 6.6029 1.3747 3.2456 2.3861 1.2207 1.5961 -1.3234 -0.4479 4.4727 -12.4799 -9.1317 8.7810 30.5579 -2.1996 2.4455 12.6781 -0.0000 0.0000 0.0000 -92.9398 0.9834 7.7443 18.3798 -28.6407 -4.7299 -0.0000 -0.0000 5.6395 15.5448 31.0162 8.1569 -7.1250 0.0000 -0.0000 -18.8625 60.9544 -7.4847 -0.0000 0.0000 0.0000 88.4301 2.8774 19.3559 -16.6298 26.3672 -3.9215 0.0000 -0.0000 -6.7339 -25.1373 13.7525 -6.3650 7.1250 -0.0000 -0.0000 1.5515 -14.8554 1.1022
0.00 0.00 0.00 5.0345 -74.5499 1.1388 0.0000 0.0000 0.0000 -21.6857 -20.6570 -21.0322 4.8931 13.2624 40.3588 1.1507 -6.6776 -19.1577 0.2432 3.1737 8.7628 0.0000 0.0000 0.0000 19.7849 9.4455 -29.4971 -15.6558 -19.5414 77.2045 0.0527 4.5518 -0.5141 -0.6342 -5.0952 14.1803 -0.6442 2.3939 7.3580 1.2802 3.1147 2.3773 1.4052 1.5300 -1.7718 0.0010 5.3971 -11.6423 -10.3010 10.2662 30.2677 -2.5216 3.0341 12.5864 -0.0000 -0.0000 0.0000 -93.1763 1.0813 7.1402 18.5356 -28.8375 -4.8048 -0.0000 -0.0000 7.3191 14.8199 31.1276 7.7883 -7.1250 0.0000 -0.0000 -19.7299 60.8837 -7.8110 -0.0000 -0.0000 0.0000 87.6620 3.2309 19.5484 -16.7500 26.5270 -3.9750 0.0000 -0.0000 -4.5440 -23.4952 14.0772 -6.0357 7.1250 -0.0000 -0.0000 2.6931 -14.6990 1.9238
0.00 0.00 0.00 3.0191 -75.4246 2.8945 0.0000 0.0000 0.0000 -22.1367 -19.5980 -16.6660 4.9873 13.3695 40.7678 1.6470 -4.4507 -23.2386 0.0231 0.9806 2.6955 0.0000 0.0000 0.0000 15.2778 12.9821 -36.7824 -13.0165 -18.7881 69.1766 -0.3622 -6.3213 -15.4288 -1.7815 -8.3952 23.9211 0.3369 2.0019 8.1374 1.7096 2.6685 2.4825 1.3133 1.3009 -2.0569 0.4075 6.8703 -11.3023 -11.6991 12.6970 30.3157 -2.7811 3.9715 12.8789 0.0000 0.0000 0.0000 -94.1258 1.3504 7.3273 18.8015 -29.1713 -4.9337 -0.0000 -0.0000 7.5699 14.7923 31.2973 7.8110 -7.1250 0.0000 -0.0000 -19.8959 61.0356 -7.9517 0.0000 0.0000 0.0000 86.9704 3.9282 18.4216 -17.5737 27.6078 -4.3499 0.0000 -0.0000 -7.4447 -26.5221 13.8256 -6.8010 7.1250 -0.0000 -0.0000 0.6129 -14.6019 0.4386
